<?xml version="1.0" standalone="no"?>
<!DOCTYPE svg PUBLIC "-//W3C//DTD SVG 20010904//EN"
 "http://www.w3.org/TR/2001/REC-SVG-20010904/DTD/svg10.dtd">
<svg version="1.0" xmlns="http://www.w3.org/2000/svg"
 width="1024.000000pt" height="1024.000000pt" viewBox="0 0 1024.000000 1024.000000"
 preserveAspectRatio="xMidYMid meet">

<g transform="translate(0.000000,1024.000000) scale(0.100000,-0.100000)"
fill="#000000" stroke="none">
<path d="M8220 7764 c-402 -200 -797 -330 -1490 -489 -550 -126 -702 -171
-870 -255 -250 -126 -465 -334 -598 -578 l-40 -74 -12 54 c-94 393 -360 741
-715 937 -116 65 -222 106 -365 144 -112 30 -120 31 -350 31 -258 1 -315 -8
-510 -76 -469 -165 -813 -563 -931 -1076 -26 -113 -36 -363 -20 -487 81 -610
516 -1105 1105 -1258 l86 -22 0 -1010 c0 -994 1 -1011 21 -1055 75 -166 302
-211 436 -87 58 54 84 107 91 184 l5 63 316 0 c233 0 320 3 329 12 17 17 17
319 0 336 -8 8 -58 12 -160 12 l-149 0 3 133 3 132 144 3 c86 1 150 7 158 14
18 14 19 328 1 346 -9 9 -96 12 -330 12 l-318 0 0 453 0 452 88 21 c133 33
251 80 351 139 l92 54 51 -39 c72 -54 246 -143 364 -186 312 -113 762 -178
1229 -178 243 0 280 2 374 22 432 94 749 347 890 709 10 27 21 61 25 77 7 27
6 28 -20 22 -66 -17 -325 -57 -456 -70 -78 -9 -296 -22 -483 -31 -584 -27
-840 -68 -1047 -170 -83 -41 -78 -23 17 55 201 166 444 237 945 275 440 33
575 46 668 64 242 47 433 148 609 322 188 186 307 441 320 687 4 76 3 102 -6
102 -7 0 -107 -30 -224 -66 -423 -131 -772 -217 -1089 -268 -608 -98 -869
-189 -1093 -380 l-60 -51 29 50 c108 188 268 320 489 403 111 41 238 73 617
152 342 72 645 146 780 190 325 106 566 303 702 575 82 162 129 352 131 525 1
107 -9 201 -21 198 -4 0 -54 -25 -112 -54z m-4200 -899 c160 -51 259 -114 372
-234 87 -92 154 -211 190 -337 19 -65 23 -103 23 -219 0 -166 -19 -247 -90
-384 -109 -210 -298 -360 -531 -422 -95 -25 -277 -30 -369 -10 -296 65 -530
274 -626 561 -27 81 -33 114 -37 220 -3 104 -1 140 17 213 49 207 165 378 336
496 92 64 163 96 280 127 79 21 107 24 220 20 107 -3 145 -8 215 -31z"/>
</g>
</svg>
