<?xml version="1.0" standalone="no"?>
<!DOCTYPE svg PUBLIC "-//W3C//DTD SVG 20010904//EN"
 "http://www.w3.org/TR/2001/REC-SVG-20010904/DTD/svg10.dtd">
<svg version="1.0" xmlns="http://www.w3.org/2000/svg"
 width="1024.000000pt" height="1024.000000pt" viewBox="0 0 1024.000000 1024.000000"
 preserveAspectRatio="xMidYMid meet">

<g transform="translate(0.000000,1024.000000) scale(0.100000,-0.100000)"
fill="#000000" stroke="none">
<path d="M8655 8123 c-458 -234 -903 -380 -1762 -579 -599 -138 -750 -183
-935 -275 -293 -147 -542 -390 -684 -669 l-37 -74 -28 105 c-75 288 -211 522
-428 740 -227 226 -469 363 -776 439 -884 218 -1761 -290 -2001 -1158 -242
-873 254 -1784 1116 -2052 69 -21 137 -41 152 -44 l28 -6 2 -1153 3 -1152 30
-54 c58 -104 161 -157 294 -149 171 10 291 134 291 300 l0 48 353 0 c303 0
356 2 375 16 21 15 22 21 22 193 0 124 -4 181 -12 189 -8 8 -63 12 -180 12
l-168 0 0 155 0 155 164 0 c136 0 167 3 180 16 13 13 16 45 16 194 0 178 0
180 -24 195 -20 13 -71 15 -375 13 l-351 -3 0 511 0 511 107 27 c140 35 286
94 400 162 l92 54 63 -44 c306 -212 686 -325 1323 -392 112 -12 252 -18 465
-18 280 -1 314 1 417 22 451 91 821 362 987 723 34 73 71 187 64 194 -2 2 -21
0 -43 -5 -93 -22 -276 -51 -442 -69 -171 -19 -304 -28 -788 -51 -483 -24 -763
-75 -993 -181 l-87 -40 50 51 c160 164 402 269 743 320 163 24 282 36 632 60
322 23 462 40 580 70 250 64 434 171 620 359 166 169 263 338 319 556 37 142
54 325 31 325 -6 0 -128 -36 -273 -81 -523 -161 -791 -226 -1277 -309 -511
-88 -700 -139 -923 -251 -103 -52 -187 -109 -256 -173 -59 -55 -61 -45 -8 42
143 239 383 393 752 485 77 20 304 70 505 112 417 88 737 167 890 220 459 161
750 474 865 934 30 120 49 296 41 375 -11 105 -18 146 -25 145 -3 0 -46 -21
-96 -46z m-4794 -1026 c172 -52 291 -121 408 -236 236 -232 331 -585 244 -906
-20 -74 -90 -228 -133 -290 -100 -145 -277 -284 -434 -342 -279 -103 -588 -74
-832 77 -158 97 -270 222 -355 395 -66 137 -92 247 -92 400 0 445 306 820 749
919 110 25 335 16 445 -17z"/>
</g>
</svg>
